<svg xmlns="http://www.w3.org/2000/svg" version="1.1" width="227" height="13" viewBox="295 288 227 13">

 <g>
  <title>Layer 1</title>
  <path id="svg_1" fill="#727171" d="m297.32,300.52c-0.12,-1.44 -0.12,-3.72 -0.12,-5.28l0,-1.8c0,-1.56 0,-3.48 0.12,-4.92c-0.24,0 -0.48,0 -0.72,0c-0.24,0 -0.6,0 -0.84,0c0.12,1.44 0.24,3.36 0.24,4.92l0,1.8c0,1.56 -0.12,3.84 -0.24,5.28c0.24,0 0.6,0 0.84,0c0.24,0 0.48,0 0.72,0z"/>
  <path id="svg_2" fill="#727171" d="m309.32,291.64c-0.36,0.12 -0.48,0.12 -0.6,0.12c0,0 -0.24,0 -0.48,-0.12c0.12,1.08 0.24,3 0.24,4.68l0,1.92l-0.12,0c0,-0.12 -0.12,-0.24 -0.24,-0.24c-1.44,-1.56 -4.2,-4.68 -5.64,-6.36l-0.6,0c0.12,0.6 0.12,2.04 0.12,3.72l0,0.6c0,1.56 -0.12,3.48 -0.24,4.56c0.24,0 0.48,0 0.6,0c0.12,0 0.36,0 0.48,0c-0.12,-1.08 -0.12,-3 -0.12,-4.56l0,-2.28c0,0.12 0.12,0.24 0.24,0.36c2.16,2.16 4.8,5.16 5.88,6.48l0.24,0c0,-0.72 0,-1.92 0,-3.24l0,-1.08c0,-1.56 0.12,-3.48 0.24,-4.56z"/>
  <path id="svg_3" fill="#727171" d="m313.04,296.08c0,3 1.92,4.56 4.92,4.56c1.2,0 2.52,-0.24 3.12,-0.48l0,-0.12c0,-0.36 0,-0.84 0,-1.32c0,-0.6 0,-1.32 0.12,-2.04c-0.48,0 -0.6,0 -0.72,0c-0.12,0 -0.24,0 -0.72,0c0.12,0.84 0.12,1.8 0.12,3c-0.36,0.24 -1.08,0.36 -1.8,0.36c-2.28,0 -3.6,-1.44 -3.6,-3.96c0,-2.76 1.68,-3.96 3.48,-3.96c1.32,0 2.16,0.48 2.52,1.2l0.12,0c0.12,-0.48 0.24,-0.84 0.36,-1.2c-0.72,-0.36 -1.8,-0.6 -3,-0.6c-2.88,0 -4.92,1.68 -4.92,4.56z"/>
  <path id="svg_4" fill="#727171" d="m331.64,300.4c-0.84,-0.96 -2.76,-3.12 -3.6,-4.08c1.2,-0.12 2.64,-0.72 2.64,-2.4c0,-1.56 -0.96,-2.28 -2.64,-2.28c-0.36,0 -1.08,0.12 -1.44,0.12c-0.36,0 -0.72,-0.12 -1.2,-0.12c0,1.32 0,2.76 0,3.84l0,0.84c0,1.08 0,2.88 -0.12,4.2c0.12,0 0.48,0 0.72,0c0.24,0 0.6,0 0.72,0c-0.12,-0.96 -0.12,-2.64 -0.12,-3.72l0,-0.36c0.12,0 0.12,0 0.24,0c0.96,1.2 2.64,3.24 3.24,4.08c0.36,0 0.72,0 0.96,0c0.12,0 0.36,0 0.6,0l0,-0.12zm-2.28,-6.36c0,1.68 -1.2,2.04 -2.4,2.04l-0.36,0l0,-0.6c0,-0.72 0,-2.4 0,-3.24c0.24,0 0.6,0 0.72,0c1.32,0 2.04,0.36 2.04,1.8z"/>
  <path id="svg_5" fill="#727171" d="m339.08,300.52c0,-0.12 0,-0.24 0,-0.36c0,-0.24 0,-0.24 0,-0.48c-0.84,0.24 -1.92,0.24 -3.12,0.24c0,-0.48 0,-2.16 0,-3.24l0,-0.48c1.56,0 2.4,0 2.76,0c0,-0.12 0,-0.24 0,-0.36c0,-0.12 0,-0.24 0,-0.36c-0.36,0 -1.2,0.12 -2.76,0.12l0,-0.48c0,-0.96 0,-2.28 0,-2.76c1.32,0 2.52,0 3.12,0.12c-0.12,-0.24 -0.12,-0.24 -0.12,-0.36c0,-0.12 0,-0.24 0.12,-0.48c-0.96,0 -1.92,0.12 -2.76,0.12c-0.48,0 -1.2,-0.12 -1.68,-0.12c0.12,1.32 0.12,2.76 0.12,3.84l0,0.84c0,1.08 0,2.88 -0.12,4.2c0.36,0 1.2,-0.12 1.68,-0.12c0.84,0 2.04,0.12 2.76,0.12z"/>
  <path id="svg_6" fill="#727171" d="m350.96,295.96c0,-3.12 -1.56,-4.32 -4.56,-4.32c-0.72,0 -1.56,0.12 -2.16,0.12c-0.48,0 -0.96,-0.12 -1.44,-0.12c0.12,1.32 0.12,2.76 0.12,3.84l0,0.84c0,1.08 0,2.88 -0.12,4.2c0.48,0 1.08,0 1.44,0c0.6,0 1.56,0 2.16,0c2.16,0 4.56,-1.2 4.56,-4.56zm-1.32,0c0,3.36 -2.04,3.96 -3.84,3.96c-0.6,0 -1.2,-0.12 -1.56,-0.12c-0.12,-0.72 -0.12,-2.16 -0.12,-2.88l0,-1.56c0,-0.84 0,-2.16 0.12,-3c0.48,-0.12 1.2,-0.12 1.8,-0.12c2.04,0 3.6,0.72 3.6,3.72z"/>
  <path id="svg_7" fill="#727171" d="m356.24,300.52c-0.12,-1.32 -0.12,-3.12 -0.12,-4.2l0,-0.84c0,-1.08 0,-2.52 0.12,-3.84c-0.12,0 -0.48,0.12 -0.72,0.12c-0.24,0 -0.6,-0.12 -0.72,-0.12c0.12,1.32 0.12,2.76 0.12,3.84l0,0.84c0,1.08 0,2.88 -0.12,4.2c0.12,0 0.48,0 0.72,0c0.24,0 0.6,0 0.72,0z"/>
  <path id="svg_8" fill="#727171" d="m365,300.52c0,-0.12 0,-0.24 0,-0.36c0,-0.24 0,-0.24 0,-0.48c-0.96,0.24 -1.92,0.24 -3.12,0.24c0,-0.48 0,-2.16 0,-3.24l0,-0.48c1.56,0 2.28,0 2.76,0c0,-0.12 0,-0.24 0,-0.36c0,-0.12 0,-0.24 0,-0.36c-0.48,0 -1.2,0.12 -2.76,0.12l0,-0.48c0,-0.96 0,-2.28 0,-2.76c1.32,0 2.52,0 3,0.12c0,-0.24 0,-0.24 0,-0.36c0,-0.12 0,-0.24 0,-0.48c-0.84,0 -1.8,0.12 -2.64,0.12c-0.48,0 -1.32,-0.12 -1.68,-0.12c0.12,1.32 0.12,2.76 0.12,3.84l0,0.84c0,1.08 0,2.88 -0.12,4.2c0.36,0 1.2,-0.12 1.68,-0.12c0.84,0 1.92,0.12 2.76,0.12z"/>
  <path id="svg_9" fill="#727171" d="m376.16,291.64c-0.36,0.12 -0.48,0.12 -0.6,0.12c0,0 -0.24,0 -0.48,-0.12c0.24,1.08 0.24,3 0.24,4.68l0,1.92c-0.12,-0.12 -0.24,-0.24 -0.36,-0.24c-1.44,-1.56 -4.2,-4.68 -5.64,-6.36l-0.48,0c0,0.6 0,2.04 0,3.72l0,0.6c0,1.56 -0.12,3.48 -0.12,4.56c0.24,0 0.36,0 0.48,0c0.12,0 0.36,0 0.48,0c-0.12,-1.08 -0.12,-3 -0.12,-4.56l0,-2.28c0.12,0.12 0.12,0.24 0.24,0.36c2.16,2.16 4.8,5.16 5.88,6.48l0.24,0c0,-0.72 0,-1.92 0,-3.24l0,-1.08c0,-1.56 0.12,-3.48 0.24,-4.56z"/>
  <path id="svg_10" fill="#727171" d="m385.76,292.48c-0.12,-0.24 -0.12,-0.24 -0.12,-0.36c0,-0.12 0,-0.24 0.12,-0.48c-0.84,0.12 -2.28,0.12 -3.36,0.12c-1.08,0 -2.52,0 -3.36,-0.12c0,0.24 0,0.36 0,0.48c0,0.12 0,0.12 0,0.36c0.6,-0.12 2.04,-0.24 2.76,-0.24c0,0.6 0,1.2 0,1.56l0,2.52c0,1.08 0,2.88 -0.12,4.2c0.12,0 0.48,0 0.72,0c0.24,0 0.6,0 0.72,0c-0.12,-1.32 -0.12,-3.12 -0.12,-4.2l0,-2.52c0,-0.36 0,-0.96 0,-1.56c0.72,0 2.16,0.12 2.76,0.24z"/>
  <path id="svg_11" fill="#727171" d="m393.32,298c0,-1.68 -0.96,-2.16 -2.4,-2.76c-0.84,-0.36 -1.56,-0.72 -1.56,-1.8c0,-0.84 0.72,-1.44 1.56,-1.44c0.96,0 1.44,0.48 1.56,1.2l0.36,0c0,-0.48 0.12,-0.96 0.24,-1.32c-0.48,-0.12 -1.2,-0.36 -1.92,-0.36c-1.68,0 -2.88,0.84 -2.88,2.4c0,1.56 1.08,2.04 2.04,2.52c1.2,0.48 1.8,0.84 1.8,2.04c0,1.08 -0.84,1.56 -1.8,1.56c-0.96,0 -1.56,-0.36 -1.92,-1.2l-0.24,0c-0.12,0.36 -0.12,0.96 -0.24,1.32c0.48,0.24 1.44,0.48 2.28,0.48c1.92,0 3.12,-1.2 3.12,-2.64z"/>
  <path id="svg_12" fill="#727171" d="m408.32,291.76l-0.12,-0.12c-0.12,0 -0.48,0.12 -0.48,0.12c-0.12,0 -0.36,-0.12 -0.48,-0.12c-0.36,1.08 -1.56,3.12 -2.28,4.44l-0.12,0c-0.84,-1.44 -1.8,-3.12 -2.4,-4.44c-0.24,0 -0.48,0.12 -0.6,0.12c-0.24,0 -0.6,-0.12 -0.84,-0.12l0,0.12c0.84,1.2 2.4,3.84 3.12,5.16l0,0.36c0,0.96 -0.12,1.92 -0.24,3.24c0.24,0 0.48,0 0.72,0c0.24,0 0.6,0 0.72,0c-0.12,-1.32 -0.12,-2.28 -0.12,-3.24l0,-0.48c0.6,-1.2 2.4,-4.08 3.12,-5.04z"/>
  <path id="svg_13" fill="#727171" d="m419.84,296.08c0,-2.88 -1.68,-4.56 -4.56,-4.56c-2.76,0 -4.68,1.8 -4.68,4.56c0,2.76 1.92,4.56 4.68,4.56c2.76,0 4.56,-1.8 4.56,-4.56zm-1.2,0c0,2.64 -1.44,4.08 -3.36,4.08c-1.92,0 -3.24,-1.44 -3.24,-4.08c0,-2.76 1.32,-4.08 3.24,-4.08c1.92,0 3.36,1.44 3.36,4.08z"/>
  <path id="svg_14" fill="#727171" d="m431.36,291.64c-0.24,0.12 -0.36,0.12 -0.48,0.12c-0.12,0 -0.24,0 -0.48,-0.12c0.12,1.08 0.12,2.64 0.12,4.56c0,0.84 0,1.56 -0.24,2.16c-0.36,1.08 -1.08,1.68 -2.4,1.68c-2.52,0 -2.76,-1.56 -2.76,-3.84c0,-1.92 0,-3.72 0.12,-4.56c-0.36,0 -0.6,0.12 -0.72,0.12c-0.12,0 -0.36,-0.12 -0.6,-0.12c0,0.72 0,1.68 0,3.12c0,0.6 0,1.44 0,2.16c0,2.64 1.08,3.72 3.72,3.72c1.68,0 2.76,-0.72 3.24,-1.92c0.24,-0.48 0.36,-1.08 0.36,-2.4c0,-1.8 0,-3.48 0.12,-4.68z"/>
  <path id="svg_15" fill="#727171" d="m445.16,291.52c-2.76,0 -4.8,1.56 -4.8,4.56c0,3.12 2.04,4.56 4.68,4.56c1.32,0 2.28,-0.36 2.76,-0.72c0,-0.12 0.12,-0.72 0.24,-0.96l-0.24,0c-0.48,0.6 -1.44,1.08 -2.64,1.08c-1.92,0 -3.36,-1.08 -3.36,-3.96c0,-2.76 1.68,-3.96 3.36,-3.96c1.44,0 2.04,0.48 2.4,1.2l0.24,0c0,-0.36 0.12,-0.84 0.24,-1.2c-0.72,-0.36 -1.8,-0.6 -2.88,-0.6z"/>
  <path id="svg_16" fill="#727171" d="m458.48,300.4c-1.08,-2.4 -2.88,-6.72 -3.72,-8.88l-0.24,0c-1.32,2.88 -2.88,6.24 -4.2,8.88l0,0.12c0.12,0 0.36,0 0.48,0c0.24,0 0.36,0 0.48,0c0.24,-0.84 0.72,-2.04 1.2,-3.12c0.48,0 1.08,0 1.56,0c0.6,0 1.32,0 1.8,0c0.36,0.84 0.84,2.16 1.2,3.12c0.12,0 0.48,0 0.6,0c0.12,0 0.24,0 0.36,0c0.24,0 0.36,0 0.48,0l0,-0.12zm-2.76,-3.6c-0.36,0.12 -1.2,0.12 -1.68,0.12c-0.48,0 -0.96,0 -1.44,-0.12c0.6,-1.08 1.32,-2.64 1.68,-3.48c0.48,0.96 0.96,2.4 1.44,3.48z"/>
  <path id="svg_17" fill="#727171" d="m469.04,291.64c-0.24,0.12 -0.48,0.12 -0.48,0.12c-0.12,0 -0.24,0 -0.48,-0.12c0.12,1.08 0.12,3 0.12,4.68l0,1.92c-0.12,-0.12 -0.24,-0.24 -0.24,-0.24c-1.56,-1.56 -4.2,-4.68 -5.64,-6.36l-0.6,0c0,0.6 0,2.04 0,3.72l0,0.6c0,1.56 0,3.48 -0.12,4.56c0.24,0 0.36,0 0.48,0c0.12,0 0.36,0 0.48,0c-0.12,-1.08 -0.12,-3 -0.12,-4.56l0,-2.28c0.12,0.12 0.24,0.24 0.24,0.36c2.16,2.16 4.8,5.16 5.88,6.48l0.36,0c0,-0.72 -0.12,-1.92 -0.12,-3.24l0,-1.08c0,-1.56 0.12,-3.48 0.24,-4.56z"/>
  <path id="svg_18" fill="#727171" d="m483.8,292.48c0,-0.24 0,-0.24 0,-0.36c0,-0.12 0,-0.24 0,-0.48c-0.72,0.12 -2.16,0.12 -3.24,0.12c-1.08,0 -2.52,0 -3.36,-0.12c0,0.24 0,0.36 0,0.48c0,0.12 0,0.12 0,0.36c0.6,-0.12 2.04,-0.24 2.76,-0.24c0,0.6 0,1.2 0,1.56l0,2.52c0,1.08 0,2.88 -0.12,4.2c0.12,0 0.48,0 0.72,0c0.24,0 0.6,0 0.72,0c-0.12,-1.32 -0.12,-3.12 -0.12,-4.2l0,-2.52c0,-0.36 0,-0.96 0,-1.56c0.72,0 2.16,0.12 2.64,0.24z"/>
  <path id="svg_19" fill="#727171" d="m493.28,300.4c-0.96,-0.96 -2.88,-3.12 -3.72,-4.08c1.2,-0.12 2.64,-0.72 2.64,-2.4c0,-1.56 -0.96,-2.28 -2.64,-2.28c-0.36,0 -1.08,0.12 -1.44,0.12c-0.36,0 -0.6,-0.12 -1.2,-0.12c0.12,1.32 0.12,2.76 0.12,3.84l0,0.84c0,1.08 -0.12,2.88 -0.24,4.2c0.24,0 0.6,0 0.72,0c0.24,0 0.6,0 0.72,0c0,-0.96 -0.12,-2.64 -0.12,-3.72l0,-0.36c0.12,0 0.24,0 0.24,0c0.96,1.2 2.64,3.24 3.24,4.08c0.36,0 0.72,0 0.96,0c0.12,0 0.36,0 0.6,0l0.12,-0.12zm-2.28,-6.36c0,1.68 -1.2,2.04 -2.4,2.04l-0.48,0l0,-0.6c0,-0.72 0,-2.4 0.12,-3.24c0.24,0 0.48,0 0.72,0c1.2,0 2.04,0.36 2.04,1.8z"/>
  <path id="svg_20" fill="#727171" d="m503.84,291.64c-0.24,0.12 -0.36,0.12 -0.48,0.12c-0.12,0 -0.24,0 -0.48,-0.12c0.12,1.08 0.12,2.64 0.12,4.56c0,0.84 0,1.56 -0.24,2.16c-0.36,1.08 -1.08,1.68 -2.52,1.68c-2.4,0 -2.76,-1.56 -2.76,-3.84c0,-1.92 0.12,-3.72 0.24,-4.56c-0.36,0 -0.6,0.12 -0.72,0.12c-0.12,0 -0.36,-0.12 -0.72,-0.12c0.12,0.72 0.12,1.68 0.12,3.12c0,0.6 0,1.44 0,2.16c0,2.64 1.08,3.72 3.72,3.72c1.68,0 2.76,-0.72 3.24,-1.92c0.24,-0.48 0.36,-1.08 0.36,-2.4c0,-1.8 0,-3.48 0.12,-4.68z"/>
  <path id="svg_21" fill="#727171" d="m512.6,298c0,-1.68 -0.96,-2.16 -2.4,-2.76c-0.84,-0.36 -1.44,-0.72 -1.44,-1.8c0,-0.84 0.6,-1.44 1.56,-1.44c0.84,0 1.32,0.48 1.56,1.2l0.24,0c0,-0.48 0.24,-0.96 0.36,-1.32c-0.6,-0.12 -1.2,-0.36 -2.04,-0.36c-1.56,0 -2.88,0.84 -2.88,2.4c0,1.56 1.08,2.04 2.04,2.52c1.2,0.48 1.8,0.84 1.8,2.04c0,1.08 -0.84,1.56 -1.68,1.56c-1.08,0 -1.68,-0.36 -2.04,-1.2l-0.12,0c-0.12,0.36 -0.24,0.96 -0.24,1.32c0.36,0.24 1.44,0.48 2.28,0.48c1.8,0 3,-1.2 3,-2.64z"/>
  <path id="svg_22" fill="#727171" d="m521.48,292.48c0,-0.24 0,-0.24 0,-0.36c0,-0.12 0,-0.24 0,-0.48c-0.72,0.12 -2.16,0.12 -3.24,0.12c-1.08,0 -2.52,0 -3.36,-0.12c0,0.24 0,0.36 0,0.48c0,0.12 0,0.12 0,0.36c0.6,-0.12 2.04,-0.24 2.76,-0.24c0,0.6 0,1.2 0,1.56l0,2.52c0,1.08 0,2.88 -0.12,4.2c0.12,0 0.48,0 0.72,0c0.24,0 0.6,0 0.72,0c-0.12,-1.32 -0.12,-3.12 -0.12,-4.2l0,-2.52c0,-0.36 0,-0.96 0,-1.56c0.72,0 2.16,0.12 2.64,0.24z"/>
 </g>
</svg>