<svg id="logo" xmlns="http://www.w3.org/2000/svg" viewBox="0 0 577.71 128.72"><defs><style>.cls-1{fill:#a0c203;}.cls-1,.cls-2{fill-rule:evenodd;}.cls-2{fill:#2c9cd6;}</style></defs><path class="cls-1" d="M262.43,35.75a26.71,26.71,0,0,1,9.24,1.71c9.09,3.57,15.25,13.26,15.52,24.09.19,7.59-2.05,15.69-5.62,20.78-3.25,4.66-8.34,9.28-16.45,10-.91.08-1.81.11-2.69.11s-1.77,0-2.68-.11c-8.11-.68-13.2-5.3-16.46-10-3.56-5.09-5.8-13.19-5.61-20.78C238,50.72,244.11,41,253.2,37.46a26.7,26.7,0,0,1,9.23-1.71m0,60,2-.09a34.62,34.62,0,0,0,13.21-3.11c7-3.24,13.54-8.74,16.47-16.12a32.6,32.6,0,0,0,2.07-14.17c-.75-9.59-3.5-16.07-10-22.59A23.87,23.87,0,0,0,275.57,34a52.19,52.19,0,0,0-26.27,0,23.87,23.87,0,0,0-10.59,5.71c-6.48,6.52-9.23,13-10,22.59a32.6,32.6,0,0,0,2.07,14.17c2.93,7.38,9.42,12.88,16.47,16.12a34.62,34.62,0,0,0,13.21,3.11Z"/><path class="cls-1" d="M316.63,61.8a34.44,34.44,0,0,0,8.23-.09,17.86,17.86,0,0,0,6.68-2c3.71-2.15,6.55-4.78,7.21-10.25.69-5.69-2.87-9.11-6.22-11s-7.7-1.62-11.45-1.62c-1.47,0-3,0-4.44,0Zm-8.28,32.59c2.07-.13,3.5-.77,6.37-.36.61.09,1.33.33,1.91.37v-29h2.75l8.55,10.86c.89,1.15,1.93,2.5,2.84,3.62,2.92,3.59,5.67,7.27,8.54,10.84.47.58.93,1.16,1.42,1.81a21.31,21.31,0,0,0,1.49,1.84c.62,0,1.81-.23,2.49-.31a23.14,23.14,0,0,1,2.65-.16c.81,0,1.89,0,2.7.11s1.79.35,2.5.35c-.14-.3-8.26-10.5-8.74-11.08-1-1.23-1.89-2.38-2.92-3.69-2.83-3.59-6.05-7.53-8.76-11.07-.47-.62-2.76-3.38-2.92-3.74,6-.91,10.7-3,14.68-7.29,3.72-4,4.47-11.49,1.34-16.82s-8.81-7-14.92-7h-22Z"/><path class="cls-2" d="M530,94.4c2.88-.19,1.81-.68,5.82-.36a9.83,9.83,0,0,1,1.75.35l0-30.29a3.3,3.3,0,0,1,2.56,1,27,27,0,0,1,2.64,2.71l.85.91c.57.61,1.1,1.31,1.63,2,2.15,2.65,4.24,5.23,6.43,7.89l12.86,15.78c.61,0,1.65-.26,2.35-.32a27.65,27.65,0,0,1,6.3.11c.32,0,.81.2,1.07.22.2-1.34-.11-1.53-1.12-2.59l-3.63-4.15c-.29-.35-.57-.69-.89-1-1.44-1.54-3.06-3.58-4.52-5.17l-3.62-4.15c-2.38-2.79-4.82-5.52-7.21-8.29l-7.26-8.33c.16-.29,2.87-2.92,3.33-3.38,1.14-1.15,2.22-2.25,3.37-3.38,2.27-2.25,4.45-4.48,6.72-6.72.38-.37,13-12.88,13.42-13.46a10.51,10.51,0,0,1-3.52.41c-2.76-.19-2.12-.92-3,0-6.57,6.67-13.47,13.49-20.12,20.11-1,1-7.67,7.32-8.59,7.62V33.68c-.41,0-1.17.31-1.69.38a19.76,19.76,0,0,1-4.14,0c-.63-.07-1.26-.31-1.76-.37Z"/><path class="cls-2" d="M483.7,94.38l32.41,0a6.59,6.59,0,0,1-.43-2.69,23.38,23.38,0,0,1,.45-2.76c-6.25.34-11.59,1-18,1-2.1,0-4.05-.22-6.1-.31l0-24.86c3.59-.07,7.41-.07,11,0s7,.58,10.45.59a18.44,18.44,0,0,1-.48-2.73,5.23,5.23,0,0,1,.12-1.44c.09-.44.28-.93.33-1.26-3.72.18-6.32.69-10.34.69-.83,0-10.51.06-11.05,0V39.26c.39-.1,11.41-.25,12-.25,2.34,0,6.43.12,8.79.4.82.1,1.89.34,2.65.39a7.52,7.52,0,0,0-.3-1.2c-.47-2,.08-2.65.29-4.24H491.59c-1.15,0-7.3-.13-7.89,0Z"/><path class="cls-1" d="M189.62,94a14,14,0,0,1,3.07,0,3.85,3.85,0,0,1,.49.07,11.23,11.23,0,0,1,1.29.21V64.11h0c1.67-.13,3.93,0,5.65,0,3.86,0,7.3-.09,11.14.27l5.32.41a12.14,12.14,0,0,1-.47-2.71,12.24,12.24,0,0,1,.47-2.71l-5.32.41c-3.84.37-7.28.27-11.14.27-1.72,0-4,.13-5.65,0V38.52c3.47-.29,14.14.61,17.93,1.14.91.12,1.87.24,2.77.39s1.94.38,2.82.46a10.36,10.36,0,0,1-.47-3,9.91,9.91,0,0,1,.46-3.1h-31.1v60a15.06,15.06,0,0,1,2.73-.32"/><path class="cls-2" d="M427.41,39.81c.73-.08,1.53-.24,2.29-.33,3.3-.41,14.43-1.8,16.89-1.67V94.37c.33,0,2.24-.43,3.8-.45a19.47,19.47,0,0,1,2,.11c.74,0,1.26.27,1.85.34V37.81a42.92,42.92,0,0,1,5.07.24c3.76.32,8.24.8,12,1.4.7.12,1.66.31,2.36.35a19.38,19.38,0,0,1-.48-3.07,13,13,0,0,1,.14-1.66c.09-.45.27-.9.35-1.41H427.39a11.1,11.1,0,0,1,.49,3.08,30.63,30.63,0,0,1-.47,3.08"/><path class="cls-2" d="M411.11,64c0,.47,0,.93,0,1.39h8.81c.05-.5.08-1,.1-1.44.22-6.35-.53-12-3.42-17.83-2.55-5.08-5.4-8.34-10.93-10.51a34.28,34.28,0,0,0-11.8-2h-29.1V65.41h8.32V37.53h7.81c20.34,0,29.73,5.49,30.2,26.49"/><path class="cls-1" d="M411.11,65.41c-.23,13.46-8.24,24.94-22.06,24.94l-16,0,0-25h-8.32V94.33h26.47a36.92,36.92,0,0,0,11.66-2.61c6.17-2.67,12.05-9.21,14.4-15.47a48.72,48.72,0,0,0,2.62-10.84Z"/><path class="cls-2" d="M65.8,5.38a63.39,63.39,0,0,1,25.85-4A6.26,6.26,0,0,1,95.84,12l-47,47,0,0a7.09,7.09,0,0,0,0,10l0,0,47,47a6.27,6.27,0,0,1-4.08,10.69,63.4,63.4,0,0,1-26-4,62.56,62.56,0,0,1-22-14.2h0L6,70.7H6a9.35,9.35,0,0,1-2.74-6.62v0A9.38,9.38,0,0,1,6,57.39v0L43.86,19.59l0,0a62.67,62.67,0,0,1,22-14.19"/><path class="cls-1" d="M130.25,110.93c-.8.72-1.59,1.39-2.37,2a6.29,6.29,0,0,1-8.67-.21L75.53,69.06a7.07,7.07,0,0,1,0-10l43.68-43.69h0a6.29,6.29,0,0,1,8.37-.46c.86.7,1.75,1.45,2.66,2.26s1.86,1.7,2.55,2.39a6.29,6.29,0,0,1,0,8.9L103.89,57.39a9.43,9.43,0,0,0,13.34,13.34l22.12-22.12h0A6.26,6.26,0,0,1,150,51.84a63.39,63.39,0,0,1-1.53,30.55,62.57,62.57,0,0,1-15.62,26.14q-1.05,1.05-2.55,2.4"/></svg>
