<svg width="73" height="73" viewBox="0 0 73 73" fill="none" xmlns="http://www.w3.org/2000/svg">
<circle cx="36.5" cy="36.5" r="35.5" stroke="#DEE3E3" stroke-width="2"/>
<path d="M37.25 23.5C32.7659 20.2614 26.5 21.5 25 22.5C12.5465 28.7174 22.0001 49.5 25.5 52.5C28.9999 55.5 31.75 54.5495 37.25 53C43.2151 56.9423 45.2775 54.2575 47.5 52.5C51.3392 49.4641 61.3263 29.6554 50 23C46.9828 21.3655 41.7503 22.6109 37.25 23.5ZM37.25 23.5V30.3718M37.25 23.5C38.9465 20.5449 40.0865 19.1115 42.5 17M32 27.5C33.5749 28.7441 35.6006 30.5099 37.25 30.3718M43 27.5C41.5 29.5 39 30.5 37.25 30.3718" stroke="#7FB4F0" stroke-width="2"/>
</svg>
