<svg width="73" height="73" viewBox="0 0 73 73" fill="none" xmlns="http://www.w3.org/2000/svg">
<circle cx="36.5" cy="36.5" r="35.5" stroke="#DEE3E3" stroke-width="2"/>
<path d="M24 47.5C24 47.5 24 50 24 52C24 54 25 54.5 27 54.5C29 54.5 44.5 54.5 46.5 54.5C48.5 54.5 48.5 53.5 48.5 51.5C48.5 49.5 48.5 35.5 48.5 33.5C48.5 31.5 48 30.5 46 30.5C44 30.5 28 30.5 26 30.5C24 30.5 24 32 24 33.5C24 35 24 36.5 24 36.5M24 47.5C24 47.5 32.5 47.5 33.5 47.5C34.5 47.5 35.5 47.5 35.5 46.5C35.5 45.5 35.5 40.5 35.5 39C35.5 37.5 35 36.5 33.5 36.5C32 36.5 24 36.5 24 36.5M24 47.5V36.5M54 50L52.5 53C52.178 53.726 52.2733 54.0544 53 54.5L54 55C54.6446 55.263 54.9876 55.2666 55.5 54.5L57 51.75M54 50L55.5 47C55.8833 46.398 56.2022 46.2707 57 46.5L58.5 47.5C59 48 58.9089 48.3119 58.5 49L57 51.75M54 50L57 51.75M27 18.5C27 20 27 24 27 25.5C27 27 27.5 27 29 27C30.5 27 42.5 27 44 27C45.5 27 46 27 46 25.5C46 24 46 20 46 18.5C46 17 45.5 17 44 17C42.5 17 30.5 17 29 17C27.5 17 27 17 27 18.5Z" stroke="#7FB4F0" stroke-width="2"/>
</svg>
