<svg width="73" height="73" viewBox="0 0 73 73" fill="none" xmlns="http://www.w3.org/2000/svg">
<circle cx="36.5" cy="36.5" r="35.5" stroke="#DEE3E3" stroke-width="2"/>
<path d="M26.5 46.5C27.3176 37.3537 29 31 35 25.5C41 20 45.2538 17.8949 54.5 18.5C55.8897 24.9435 54.5908 28.7234 50.5 35.5C43.1287 43.4822 37.5194 45.2379 26.5 46.5ZM26.5 46.5C23.0001 46.865 21.1275 47.4146 18 49C19.9214 51.7542 21.3338 53.4678 24.5 55C25.9136 52.6237 26.4033 50.4522 26.5 46.5ZM37.5 30C37.5 31.7574 37.5 32.5 38.5 34C39.5 35.5 43 35 43 35" stroke="#7FB4F0" stroke-width="2"/>
<path d="M42 20.5C42.6884 22.8709 43.5 26 45.5 28C47.5 30 53.1191 30.8669 53 31" stroke="#7FB4F0" stroke-width="2"/>
<circle cx="49" cy="23" r="1" fill="#7FB4F0"/>
</svg>
